<?xml version="1.0" encoding="utf-8"?>
<!-- Generator: Adobe Illustrator 16.0.0, SVG Export Plug-In . SVG Version: 6.00 Build 0)  -->
<!DOCTYPE svg PUBLIC "-//W3C//DTD SVG 1.1//EN" "http://www.w3.org/Graphics/SVG/1.1/DTD/svg11.dtd">
<svg version="1.1" id="Layer_1" xmlns="http://www.w3.org/2000/svg" xmlns:xlink="http://www.w3.org/1999/xlink" x="0px" y="0px"
	 width="296.522px" height="432.606px" viewBox="0 0 296.522 432.606" enable-background="new 0 0 296.522 432.606"
	 xml:space="preserve">
<path fill-rule="evenodd" clip-rule="evenodd" fill="#808080" d="M166.443,7.191c2.712,1.882,5.755,1.268,8.625,1.708
	c28.605,4.395,54.91,16.509,77.145,40.642c28.736,31.193,42.917,71.035,40.58,120.204c-1.531,32.179-12.567,58.688-28.87,81.792
	c-14.668,20.793-31.491,38.757-47.505,57.774c-4.423,5.254-8.67,10.764-13.139,15.948c-11.583,13.433-16.822,30.899-19.563,50.15
	c-1.259,8.835-2.824,17.657-6.225,25.655c-7.715,18.141-20.148,25.394-35.525,25.291c-23.175-0.15-39.639-20.479-41.183-50.428
	c-2.224-43.134,8.449-79.877,31.928-110.66c16.305-21.379,34.243-40.429,50.947-61.225c4-4.98,7.621-10.347,10.731-16.286
	c11.715-22.372,8.745-50.758-7.012-68.543c-12.71-14.346-27.782-17.142-43.801-15.434c-3.332,0.356-6.656,1.096-9.938,1.958
	c-11.864,3.116-20.463,12.052-26.959,25.067c-7.354,14.739-12.196,30.889-16.654,47.309c-3.653,13.45-9.027,25.37-18.358,33.626
	c-8.045,7.119-16.98,9.575-26.612,8.753c-17.333-1.486-29.005-13.653-37.24-32.599c-1.877-4.32-2.096-9.415-4.145-13.602
	c0-7.157,0-14.313,0-21.472c0.938-0.385,0.697-1.464,0.788-2.32c2.328-21.783,8.498-41.749,17.935-59.833
	C46.727,44.036,81.287,18.65,123.683,9.832c4.169-0.867,8.497-0.538,12.51-2.641C146.275,7.191,156.36,7.191,166.443,7.191z
	 M150.984,28.608c-4.896,0.293-9.784,0.309-14.696,0.788c-14.439,1.406-28.402,5.333-41.731,12.47
	c-28.905,15.48-51.912,39.734-65.47,77.052c-4.91,13.511-8.974,27.407-9.004,42.979c-0.027,13.507,4.542,23.26,12.221,31.06
	c7.915,8.043,22.101,8.583,30.362,0.792c6.473-6.104,9.614-14.889,12.191-24.153c4.23-15.202,8.605-30.28,15.03-44.257
	c7.143-15.543,15.748-29.019,29.1-35.937c13.725-7.113,27.997-8.846,42.646-6.666c20.646,3.07,37.32,15.044,48.069,38.247
	c11.038,23.829,11.749,48.544,0.976,73.345c-6.735,15.51-16.747,27.127-26.747,38.671c-14.955,17.261-29.923,34.483-43.745,53.279
	c-5.897,8.02-10.461,17.301-14.251,27.252c-7.455,19.575-9.858,40.231-8.574,61.873c0.74,12.443,4.852,21.799,13.811,26.593
	c12.832,6.865,29.642,3.33,34.284-19.099c1.455-7.028,2.719-14.134,3.877-21.257c2.179-13.372,5.806-25.839,12.34-36.79
	c11.832-19.836,27.233-34.896,41.127-51.966c11.553-14.193,23.923-27.279,34.002-43.416c18.18-29.108,24.117-61.992,17.184-98.252
	c-6.983-36.512-24.6-62.524-49.689-80.455C201.481,34.457,176.768,28.53,150.984,28.608z"/>
<path fill-rule="evenodd" clip-rule="evenodd" d="M150.991,28.607c25.777-0.077,50.49,5.849,73.302,22.153
	c25.09,17.931,42.706,43.943,49.689,80.455c6.934,36.26,0.996,69.144-17.184,98.252c-10.079,16.136-22.449,29.222-34.002,43.416
	c-13.894,17.07-29.295,32.13-41.127,51.966c-6.534,10.951-10.161,23.418-12.34,36.79c-1.158,7.123-2.422,14.229-3.877,21.257
	c-4.642,22.429-21.452,25.964-34.284,19.099c-8.958-4.794-13.071-14.149-13.811-26.593c-1.284-21.642,1.12-42.298,8.574-61.873
	c3.79-9.951,8.354-19.232,14.251-27.252c13.822-18.796,28.79-36.019,43.745-53.279c10-11.544,20.012-23.161,26.747-38.671
	c10.773-24.801,10.063-49.516-0.976-73.345c-10.749-23.203-27.423-35.176-48.069-38.247c-14.649-2.18-28.921-0.447-42.646,6.666
	c-13.352,6.918-21.957,20.393-29.1,35.937c-6.425,13.977-10.799,29.055-15.03,44.257c-2.578,9.264-5.718,18.049-12.191,24.153
	c-8.261,7.791-22.447,7.252-30.362-0.792c-7.678-7.8-12.248-17.553-12.221-31.06c0.031-15.572,4.094-29.467,9.004-42.979
	C42.644,81.6,65.651,57.346,94.556,41.866c13.329-7.138,27.292-11.064,41.731-12.47C141.2,28.917,146.088,28.901,150.991,28.607z"/>
</svg>
