<?xml version="1.0" encoding="utf-8"?>
<!-- Generator: Adobe Illustrator 16.0.0, SVG Export Plug-In . SVG Version: 6.00 Build 0)  -->
<!DOCTYPE svg PUBLIC "-//W3C//DTD SVG 1.1//EN" "http://www.w3.org/Graphics/SVG/1.1/DTD/svg11.dtd">
<svg version="1.1" xmlns="http://www.w3.org/2000/svg" xmlns:xlink="http://www.w3.org/1999/xlink" x="0px" y="0px" width="1600px"
	 height="1200px" viewBox="0 0 1600 1200" enable-background="new 0 0 1600 1200" xml:space="preserve">
<g id="Background_xA0_Image_1_">
	<g>
		<path fill-rule="evenodd" clip-rule="evenodd" fill="#FFFFFF" d="M1628.708,1200c-533.389,0-1066.527,0-1599.708,0
			c0-399.951,0-799.902,0-1199.927c533.215,0,1066.472,0,1599.708,0C1628.708,400,1628.708,800,1628.708,1200z"/>
	</g>
	<text transform="matrix(1 0 0 1 776 784)" fill="#993300" font-family="'MyriadPro-BoldCond'" font-size="85">NO</text>
</g>
<g id="Circle_xA0_Image_1_" opacity="0.6039">
	<g>
		<defs>
			
				<rect id="SVGID_1_" x="500" y="247.318" transform="matrix(-0.4876 -0.873 0.873 -0.4876 712.2881 1512.6481)" width="600" height="600"/>
		</defs>
		<clipPath id="SVGID_2_">
			<use xlink:href="#SVGID_1_"  overflow="visible"/>
		</clipPath>
		<path clip-path="url(#SVGID_2_)" fill-rule="evenodd" clip-rule="evenodd" fill="#FFFFFF" d="M503.704,514.752
			c7.313,0.547,14.612,1.171,21.921,1.609c4.156,0.25,9.671,1.833,12.122-0.174c2.458-2.014,1.844-7.752,2.618-11.85
			c9.394-49.728,29.857-94.234,63.846-131.92c24.128-26.752,51.853-49.407,85.389-63.288c19.718-8.163,40.237-15.05,61.012-19.833
			c29.638-6.826,59.881-6.443,90.083-2.114c29.587,4.24,57.596,13.511,83.844,27.303c24.202,12.715,46.132,28.861,65.271,48.801
			c23.147,24.118,42.571,50.581,54.971,81.748c5.492,13.808,9.902,28.046,14.888,42.326c11.06-2.308,22.291-4.653,33.521-6.998
			c-29.767-135.121-162.916-248.395-326.843-229.556C619.856,267.64,516.229,387.201,503.704,514.752z M1063.415,584.705
			c-16.153,116.857-110.743,216.12-237.928,227.375c-54.328,4.808-105.82-5.79-153.177-32.438
			c-53.848-30.298-92.862-74.613-116.679-132.384c-9.83,4.313-19.486,8.393-28.937,12.902c-1.138,0.544-2.151,3.894-1.552,5.14
			c6.377,13.265,12.141,26.959,19.9,39.396c19.769,31.688,44.121,59.413,74.066,82.126c21.333,16.183,44.167,29.597,68.939,39.626
			c38.242,15.483,78.001,22.972,119.329,22.176c36.758-0.71,72.208-7.926,106.201-21.658c24.926-10.07,48.048-23.381,69.556-39.801
			c26.171-19.979,48.443-43.483,66.925-70.485c16.257-23.751,28.951-49.501,37.161-77.159c4.673-15.738,8.011-31.873,12.127-48.545
			C1086.209,588.683,1074.825,586.696,1063.415,584.705z"/>
		<path clip-path="url(#SVGID_2_)" fill-rule="evenodd" clip-rule="evenodd" fill="#5C5C5C" d="M503.704,514.752
			c12.525-127.551,116.152-247.112,262.642-263.947c163.927-18.838,297.077,94.435,326.843,229.556
			c-11.229,2.344-22.461,4.689-33.521,6.998c-4.985-14.28-9.396-28.519-14.888-42.326c-12.399-31.167-31.823-57.63-54.971-81.748
			c-19.139-19.94-41.068-36.086-65.271-48.801c-26.248-13.792-54.257-23.063-83.844-27.303c-30.202-4.33-60.446-4.712-90.083,2.114
			c-20.775,4.784-41.294,11.671-61.012,19.833c-33.536,13.881-61.261,36.536-85.389,63.288
			c-33.989,37.686-54.452,82.193-63.846,131.92c-0.774,4.098-0.16,9.836-2.618,11.85c-2.451,2.008-7.966,0.424-12.122,0.174
			C518.316,515.923,511.017,515.3,503.704,514.752z"/>
		<path clip-path="url(#SVGID_2_)" fill-rule="evenodd" clip-rule="evenodd" fill="#272727" d="M1063.415,584.705
			c11.41,1.992,22.794,3.978,35.931,6.271c-4.116,16.672-7.454,32.807-12.127,48.545c-8.21,27.658-20.904,53.408-37.161,77.159
			c-18.481,27.002-40.754,50.506-66.925,70.485c-21.508,16.42-44.63,29.73-69.556,39.801
			c-33.993,13.732-69.443,20.948-106.201,21.658c-41.328,0.796-81.087-6.692-119.329-22.176
			c-24.771-10.029-47.606-23.443-68.939-39.626c-29.945-22.713-54.297-50.438-74.066-82.126c-7.76-12.438-13.523-26.132-19.9-39.396
			c-0.599-1.246,0.414-4.596,1.552-5.14c9.451-4.51,19.107-8.589,28.937-12.902c23.817,57.771,62.832,102.086,116.679,132.384
			c47.357,26.647,98.849,37.245,153.177,32.438C952.672,800.824,1047.262,701.562,1063.415,584.705z"/>
	</g>
</g>
<g id="Circle_2_xA0_Image_1_" opacity="0.7882">
	<g>
		<defs>
			
				<rect id="SVGID_3_" x="570" y="320" transform="matrix(-0.4876 -0.873 0.873 -0.4876 709.9466 1516.6379)" width="460" height="460"/>
		</defs>
		<clipPath id="SVGID_4_">
			<use xlink:href="#SVGID_3_"  overflow="visible"/>
		</clipPath>
		<path clip-path="url(#SVGID_4_)" fill-rule="evenodd" clip-rule="evenodd" fill="#292929" d="M774.901,743.519
			c-1.678,10.499-3.352,21.002-5.043,31.503c-0.175,1.084-0.459,2.151-0.688,3.205c-121.771-18.797-195.04-119.135-197.146-220.175
			c-2.635-126.414,90.853-210.113,169.874-227.482c3.392,10.929,6.792,21.891,10.197,32.861
			C646.912,393.872,605.14,486.349,607.638,558.017c1.633,46.844,18.403,88.094,49.743,123.037
			C675.699,701.481,712.888,733.113,774.901,743.519z"/>
		<path clip-path="url(#SVGID_4_)" fill-rule="evenodd" clip-rule="evenodd" d="M856.813,364.913
			c3.257-10.612,6.644-21.642,10.399-33.876c13.729,5.819,27.795,10.159,40.146,17.416c16.66,9.793,32.958,20.7,47.686,33.171
			c21.92,18.561,38.162,41.917,51.508,67.482c17.523,33.566,23.896,69.476,23.972,106.703c0.056,26.423-6.085,51.864-15.132,76.673
			c-11.846,32.486-30.774,60.475-55.254,84.395c-23.674,23.131-52.114,39.447-82.824,51.67c-8.279,3.293-8.627,2.986-11.181-5.749
			c-2.486-8.497-4.649-17.089-6.885-25.385c79.821-31.152,129.271-87.503,134.426-173.037
			C999.679,464.779,947.896,400.287,856.813,364.913z"/>
	</g>
</g>
<g id="Circle_3_xA0_Image_1_" opacity="0.8471">
	<g>
		<path fill-rule="evenodd" clip-rule="evenodd" fill="#FFFFFF" d="M644.285,540.627c10.067,0.352,19.571,0.436,29.031,1.122
			c4.528,0.329,6.481-0.49,6.935-5.542c1.861-20.694,9.571-39.721,21.432-56.234c15.574-21.683,36.127-37.206,62.457-45.412
			c36.782-11.465,70.588-5.192,102.747,13.798c9.503,5.611,17.803,13.259,26.828,20.108c8.188-7.159,16.966-14.83,25.752-22.509
			c-45.899-49.365-118.352-68.963-189.841-36.718C685.456,429.163,639.591,499.506,644.285,540.627z M923.666,537.733
			c1.263,31.54-4.468,52.646-17.431,76.867c-7.506,14.022-18.868,24.747-31.334,34.567c-21.615,17.027-46.267,24.648-73.361,24.592
			c-24.777-0.054-47.542-7.592-68.476-20.718c-3.467-2.174-5.949-3.221-9.008,1.245c-5.406,7.888-11.686,15.179-18.084,23.337
			c23.14,16.293,48.287,26.367,76.104,30.381c33.011,4.763,64.572-1.142,93.26-16.559c64.888-34.875,89.598-103.593,82.597-155.825
			C946.688,536.314,935.409,537.01,923.666,537.733z"/>
		<path fill-rule="evenodd" clip-rule="evenodd" fill="#006699" d="M644.285,540.627c-4.694-41.121,41.171-111.464,85.341-131.386
			c71.49-32.245,143.942-12.647,189.841,36.718c-8.786,7.679-17.563,15.35-25.752,22.509c-9.025-6.849-17.325-14.497-26.828-20.108
			c-32.159-18.991-65.965-25.263-102.747-13.798c-26.33,8.206-46.883,23.729-62.457,45.412c-11.86,16.513-19.57,35.54-21.432,56.234
			c-0.454,5.052-2.407,5.871-6.935,5.542C663.856,541.063,654.352,540.979,644.285,540.627z"/>
		<path fill-rule="evenodd" clip-rule="evenodd" fill="#993300" d="M923.666,537.733c11.743-0.724,23.022-1.419,34.267-2.112
			c7.001,52.232-17.709,120.95-82.597,155.825c-28.688,15.417-60.249,21.321-93.26,16.559
			c-27.817-4.014-52.964-14.088-76.104-30.381c6.398-8.158,12.678-15.449,18.084-23.337c3.06-4.466,5.541-3.419,9.008-1.245
			c20.934,13.126,43.698,20.664,68.476,20.718c27.095,0.057,51.746-7.564,73.361-24.592c12.466-9.82,23.828-20.545,31.334-34.567
			C919.198,590.379,924.929,569.273,923.666,537.733z"/>
	</g>
	<text transform="matrix(1 0 0 1 753 374)" fill="#006699" font-family="'MyriadPro-BoldCond'" font-size="85">YES</text>
</g>
</svg>
