<?xml version="1.0" encoding="utf-8"?>
<!-- Generator: Adobe Illustrator 16.0.0, SVG Export Plug-In . SVG Version: 6.00 Build 0)  -->
<!DOCTYPE svg PUBLIC "-//W3C//DTD SVG 1.1//EN" "http://www.w3.org/Graphics/SVG/1.1/DTD/svg11.dtd">
<svg version="1.1" id="Layer_1" xmlns="http://www.w3.org/2000/svg" xmlns:xlink="http://www.w3.org/1999/xlink" x="0px" y="0px"
	 width="100%" height="100%" viewBox="251 288.653 314.5 314.5" enable-background="new 251 288.653 314.5 314.5"
	 xml:space="preserve">
<style>
	<![CDATA[
	.YES:hover{ fill: #006699; }
	.NO:hover{ fill: #993300; }
	]]>
</style>
<g>
	<defs>
		
			<rect id="SVGID_1_" x="255.018" y="292.67" transform="matrix(0.4876 0.8731 -0.8731 0.4876 598.1377 -127.868)" width="305.982" height="305.982"/>
	</defs>
	<clipPath id="SVGID_2_">
		<use xlink:href="#SVGID_1_"  overflow="visible"/>
	</clipPath>
	<path clip-path="url(#SVGID_2_)" fill="#FFFFFF" d="M256.889,429.023c3.729,0.279,7.452,0.598,11.18,0.82
		c2.12,0.128,4.933,0.936,6.183-0.088c1.253-1.027,0.94-3.954,1.335-6.044c4.791-25.361,15.227-48.06,32.562-67.279
		c12.305-13.644,26.444-25.197,43.548-32.277c10.057-4.163,20.521-7.675,31.116-10.115c15.115-3.481,30.539-3.286,45.942-1.078
		c15.09,2.162,29.374,6.891,42.761,13.924c12.343,6.485,23.527,14.719,33.288,24.889c11.805,12.3,21.711,25.796,28.035,41.691
		c2.801,7.042,5.05,14.304,7.593,21.586c5.641-1.177,11.368-2.373,17.096-3.569c-15.181-68.912-83.087-126.681-166.69-117.073
		C316.126,302.997,263.277,363.973,256.889,429.023z M542.341,464.699c-8.237,59.598-56.479,110.222-121.343,115.962
		c-27.707,2.452-53.969-2.953-78.12-16.544c-27.463-15.451-47.359-38.053-59.507-67.516c-5.013,2.2-9.938,4.28-14.758,6.58
		c-0.58,0.277-1.097,1.986-0.791,2.621c3.252,6.766,6.191,13.749,10.148,20.093c10.083,16.16,22.502,30.3,37.773,41.884
		c10.88,8.253,22.525,15.095,35.159,20.209c19.504,7.896,39.78,11.716,60.858,11.31c18.746-0.361,36.825-4.042,54.162-11.045
		c12.712-5.136,24.505-11.925,35.474-20.299c13.347-10.189,24.706-22.176,34.132-35.947c8.291-12.113,14.765-25.245,18.952-39.351
		c2.383-8.027,4.085-16.256,6.185-24.759C553.966,466.729,548.16,465.715,542.341,464.699z"/>
</g>
<g>
	<defs>
		
			<rect id="SVGID_3_" x="255.018" y="292.67" transform="matrix(0.4876 0.8731 -0.8731 0.4876 598.1377 -127.868)" width="305.982" height="305.982"/>
	</defs>
	<clipPath id="SVGID_4_">
		<use xlink:href="#SVGID_3_"  overflow="visible"/>
	</clipPath>
	<path clip-path="url(#SVGID_4_)" class="YES" fill="#5C5C5C" d="M256.889,429.023c6.388-65.051,59.237-126.027,133.947-134.613
		c83.603-9.607,151.51,48.162,166.689,117.074c-5.727,1.195-11.455,2.391-17.096,3.568c-2.542-7.282-4.791-14.545-7.593-21.586
		c-6.323-15.895-16.229-29.391-28.035-41.691c-9.761-10.169-20.944-18.404-33.288-24.889c-13.387-7.034-27.671-11.762-42.76-13.924
		c-15.403-2.208-30.828-2.403-45.942,1.078c-10.596,2.44-21.061,5.952-31.116,10.115c-17.104,7.08-31.243,18.633-43.549,32.277
		c-17.334,19.22-27.771,41.918-32.562,67.28c-0.395,2.09-0.081,5.016-1.335,6.043c-1.25,1.024-4.063,0.216-6.182,0.089
		C264.341,429.621,260.618,429.303,256.889,429.023z"/>
</g>
<g>
	<defs>
		
			<rect id="SVGID_5_" x="255.018" y="292.67" transform="matrix(0.4876 0.8731 -0.8731 0.4876 598.1377 -127.868)" width="305.982" height="305.982"/>
	</defs>
	<clipPath id="SVGID_6_">
		<use xlink:href="#SVGID_5_"  overflow="visible"/>
	</clipPath>
	<path clip-path="url(#SVGID_6_)" class="NO" fill="#5C5C5C" d="M542.341,464.699c5.819,1.017,11.625,2.029,18.325,3.198
		c-2.1,8.503-3.802,16.731-6.185,24.759c-4.188,14.105-10.661,27.237-18.952,39.351c-9.426,13.771-20.785,25.758-34.132,35.947
		c-10.969,8.374-22.762,15.162-35.474,20.299c-17.336,7.003-35.416,10.684-54.162,11.045c-21.078,0.406-41.354-3.412-60.858-11.31
		c-12.633-5.114-24.278-11.956-35.158-20.209c-15.272-11.584-27.691-25.724-37.773-41.884c-3.958-6.344-6.897-13.328-10.149-20.093
		c-0.306-0.635,0.211-2.344,0.791-2.621c4.82-2.3,9.745-4.38,14.759-6.58c12.146,29.463,32.044,52.064,59.506,67.516
		c24.151,13.59,50.413,18.995,78.12,16.544C485.863,574.92,534.104,524.297,542.341,464.699z"/>
</g>
<g>
	<defs>
		
			<rect id="SVGID_7_" x="290.716" y="329.736" transform="matrix(0.4876 0.8731 -0.8731 0.4876 599.3322 -127.167)" width="234.586" height="234.586"/>
	</defs>
	<clipPath id="SVGID_8_">
		<use xlink:href="#SVGID_7_"  overflow="visible"/>
	</clipPath>
	<path clip-path="url(#SVGID_8_)" fill="#292929" d="M395.199,545.694c-0.855,5.354-1.71,10.712-2.572,16.067
		c-0.089,0.553-0.234,1.097-0.351,1.634c-62.104-9.586-99.471-60.759-100.544-112.289c-1.345-64.471,46.334-107.157,86.635-116.016
		c1.73,5.574,3.464,11.165,5.201,16.759c-53.644,15.525-74.947,62.688-73.674,99.239c0.833,23.891,9.386,44.928,25.369,62.749
		C344.607,524.256,363.573,540.388,395.199,545.694z"/>
</g>
<g>
	<defs>
		
			<rect id="SVGID_9_" x="290.716" y="329.736" transform="matrix(0.4876 0.8731 -0.8731 0.4876 599.3322 -127.167)" width="234.586" height="234.586"/>
	</defs>
	<clipPath id="SVGID_10_">
		<use xlink:href="#SVGID_9_"  overflow="visible"/>
	</clipPath>
	<path clip-path="url(#SVGID_10_)" fill="#4D4D4D" d="M436.975,352.606c1.66-5.413,3.388-11.038,5.303-17.277
		c7.002,2.968,14.176,5.181,20.475,8.882c8.497,4.995,16.809,10.557,24.32,16.917c11.179,9.466,19.462,21.377,26.269,34.416
		c8.937,17.119,12.188,35.433,12.226,54.419c0.029,13.476-3.104,26.45-7.717,39.103c-6.042,16.568-15.695,30.843-28.18,43.042
		c-12.074,11.797-26.578,20.118-42.24,26.352c-4.223,1.68-4.399,1.523-5.702-2.932c-1.269-4.334-2.371-8.716-3.512-12.946
		c40.709-15.888,65.929-44.627,68.558-88.249C509.836,403.537,483.427,370.646,436.975,352.606z"/>
</g>
<path fill="#FFFFFF" d="M328.585,442.22c5.134,0.18,9.981,0.223,14.806,0.572c2.31,0.168,3.306-0.25,3.537-2.826
	c0.949-10.554,4.881-20.258,10.93-28.68c7.943-11.058,18.425-18.975,31.854-23.16c18.759-5.847,36-2.648,52.401,7.037
	c4.846,2.862,9.079,6.763,13.682,10.255c4.176-3.65,8.653-7.563,13.134-11.479c-23.408-25.176-60.359-35.171-96.819-18.726
	C349.582,385.373,326.192,421.248,328.585,442.22z M471.07,440.744c0.644,16.085-2.279,26.85-8.89,39.202
	c-3.828,7.151-9.623,12.621-15.98,17.629c-11.023,8.684-23.597,12.57-37.414,12.542c-12.637-0.027-24.247-3.872-34.923-10.566
	c-1.769-1.108-3.034-1.643-4.595,0.635c-2.757,4.023-5.959,7.741-9.223,11.902c11.802,8.31,24.627,13.447,38.813,15.494
	c16.835,2.429,32.932-0.582,47.563-8.445c33.093-17.786,45.695-52.832,42.124-79.471
	C482.811,440.021,477.059,440.375,471.07,440.744z"/>
<path class="YES" fill="#4D4D4D" d="M328.585,442.22c-2.394-20.972,20.997-56.847,43.523-67.007c36.46-16.445,73.411-6.45,96.819,18.726
	c-4.48,3.917-8.957,7.829-13.134,11.48c-4.603-3.493-8.836-7.394-13.682-10.255c-16.401-9.686-33.643-12.884-52.401-7.037
	c-13.429,4.185-23.91,12.102-31.854,23.161c-6.048,8.422-9.98,18.125-10.93,28.679c-0.231,2.577-1.228,2.994-3.537,2.827
	C338.567,442.442,333.719,442.399,328.585,442.22z"/>
<path class="NO" fill="#272727" d="M471.07,440.744c5.989-0.369,11.741-0.724,17.476-1.077c3.571,26.638-9.031,61.685-42.124,79.471
	c-14.631,7.862-30.728,10.873-47.563,8.445c-14.187-2.048-27.012-7.186-38.813-15.495c3.264-4.16,6.466-7.879,9.223-11.901
	c1.562-2.277,2.826-1.744,4.595-0.635c10.676,6.694,22.286,10.538,34.923,10.565c13.818,0.029,26.391-3.857,37.414-12.541
	c6.357-5.009,12.152-10.479,15.98-17.63C468.79,467.594,471.713,456.829,471.07,440.744z"/>
<g class="YES">
	<path class="YES" fill="#006699" d="M386.055,357.24v-11.842l-6.794-19.094h6.426l2.112,7.39c0.551,1.974,1.147,4.269,1.606,6.563h0.092
		c0.367-2.249,0.872-4.498,1.423-6.701l1.836-7.252h6.242l-6.931,18.865v12.071H386.055z"/>
	<path class="YES" fill="#006699" d="M414.145,343.654h-7.068v8.353h7.986v5.233h-13.999v-30.936h13.448v5.232h-7.436v7.114h7.068V343.654
		L414.145,343.654z"/>
	<path class="YES" fill="#006699" d="M418.459,351.089c1.239,0.688,3.351,1.193,5.095,1.193c2.846,0,4.222-1.469,4.222-3.488
		c0-2.249-1.376-3.35-3.992-5.048c-4.223-2.571-5.829-5.83-5.829-8.629c0-4.957,3.304-9.088,9.775-9.088
		c2.02,0,3.948,0.551,4.866,1.102l-0.965,5.186c-0.872-0.551-2.203-1.056-3.947-1.056c-2.57,0-3.81,1.561-3.81,3.213
		c0,1.836,0.918,2.8,4.269,4.819c4.086,2.479,5.6,5.6,5.6,8.858c0,5.646-4.177,9.363-10.235,9.363c-2.479,0-4.911-0.643-5.92-1.239
		L418.459,351.089z"/>
</g>
<g id="Background_xA0_Image_1_">
	<g class="NO">
		<path class="NO" fill="#993300" d="M396.656,564.165V533.23h5.508l4.773,12.117c0.918,2.387,2.433,6.38,3.304,9.041h0.093
			c-0.184-3.259-0.597-8.629-0.597-14.32v-6.838h5.278v30.935h-5.508l-4.728-11.75c-1.01-2.616-2.434-6.517-3.122-9.317h-0.092
			c0.138,3.121,0.367,7.895,0.367,14.091v6.977H396.656z"/>
		<path class="NO" fill="#993300" d="M438.607,548.146c0,11.658-4.131,16.386-10.006,16.386c-7.022,0-9.776-7.436-9.776-15.927
			c0-8.445,3.351-15.743,10.189-15.743C436.495,532.862,438.607,541.078,438.607,548.146z M425.067,548.697
			c0,7.022,1.331,10.603,3.764,10.603c2.524,0,3.488-4.59,3.488-10.878c0-5.416-0.826-10.327-3.534-10.327
			C426.398,538.095,425.067,542.042,425.067,548.697z"/>
	</g>
</g>
</svg>
